<svg version="1.1" id="Layer_1" xmlns="http://www.w3.org/2000/svg" xmlns:xlink="http://www.w3.org/1999/xlink" x="0px" y="0px"
	 width="100%" viewBox="0 0 655 381" enable-background="new 0 0 655 381" xml:space="preserve">
<path fill="#000000" opacity="1.000000" stroke="none" 
	d="
M438.000000,382.000000 
	C292.035095,382.000000 146.570175,382.000000 1.052633,382.000000 
	C1.052633,255.065735 1.052633,128.131439 1.052633,1.098574 
	C219.214920,1.098574 437.429901,1.098574 655.822449,1.098574 
	C655.822449,127.999802 655.822449,254.999878 655.822449,382.000000 
	C583.464722,382.000000 510.982361,382.000000 438.000000,382.000000 
M153.850876,171.525589 
	C153.618637,172.389252 153.386414,173.252899 153.045410,174.950211 
	C151.787949,181.536957 150.530502,188.123703 149.273041,194.710464 
	C148.787918,194.694382 148.302795,194.678299 147.817688,194.662216 
	C145.460754,180.695801 143.103821,166.729401 140.743668,151.985535 
	C139.839493,148.621964 138.935318,145.258392 138.029114,141.965912 
	C138.029114,141.965912 138.100128,141.962051 137.680298,141.184738 
	C131.982315,141.500977 126.284340,141.817200 120.551865,142.013992 
	C120.551865,142.013992 120.432213,142.047791 119.637978,141.934494 
	C118.760315,142.255310 117.882660,142.576126 116.996910,142.928101 
	C116.996910,142.928101 117.004486,142.915848 116.220886,143.328094 
	C116.149864,170.966904 116.106201,198.605835 115.964211,226.244278 
	C115.950478,228.918182 117.006523,229.407272 120.081100,228.933731 
	C122.394135,228.857071 124.707176,228.780411 127.535484,228.708939 
	C127.914307,228.359695 128.293137,228.010437 129.567871,227.930801 
	C130.031296,226.599258 130.885818,225.271103 130.897308,223.935684 
	C131.005249,211.395004 130.930847,198.852783 131.029068,186.311966 
	C131.039810,184.942047 131.804626,183.578033 132.119354,183.007553 
	C133.795166,190.676315 135.470978,198.345093 136.834290,206.579987 
	C137.213211,210.319946 137.341675,214.108215 138.050995,217.784424 
	C138.609711,220.680069 139.884262,223.437622 140.875443,227.069626 
	C140.617599,230.069885 142.967316,230.736069 144.688828,229.939651 
	C148.465622,228.192383 154.515366,231.677765 156.702835,224.525635 
	C157.115280,222.488663 157.645050,220.467102 157.915253,218.411423 
	C158.445374,214.378235 158.612015,210.287079 159.323837,206.290192 
	C160.635544,198.925095 162.232346,191.610794 164.038071,183.580032 
	C164.703857,184.738037 165.961487,185.907639 165.939102,187.052170 
	C165.797104,194.308441 165.321274,201.557526 165.085159,208.813171 
	C165.040237,210.193161 165.574326,211.592010 165.996643,213.729248 
	C166.064484,214.486237 166.132309,215.243240 166.054550,216.838501 
	C166.095901,218.253036 166.137238,219.667587 166.049133,221.812881 
	C166.101837,222.805817 166.154526,223.798767 166.085342,225.607437 
	C169.409256,229.837357 177.957794,228.816589 180.000061,223.022308 
	C179.974762,207.961823 179.949463,192.901321 180.058289,177.555023 
	C180.058289,177.555023 179.984344,177.248108 180.750809,176.767670 
	C180.840897,165.975555 180.977020,155.183258 180.932999,144.391693 
	C180.929520,143.535370 179.677536,142.684158 178.553635,141.141464 
	C172.682465,141.409760 166.803925,141.583008 160.947159,142.037140 
	C159.936142,142.115524 158.312515,143.265182 158.165314,144.124435 
	C156.691803,152.726196 155.468185,161.370758 154.077942,170.436676 
	C154.077942,170.436676 154.144684,170.875336 153.850876,171.525589 
M479.215118,227.149368 
	C479.483490,219.783981 479.808502,212.419754 479.961761,205.051971 
	C479.985992,203.887146 479.234711,202.706192 478.895355,201.574844 
	C478.895355,201.574844 478.939697,201.523270 479.000366,200.512466 
	C478.980835,199.500427 478.961273,198.488403 478.895782,197.426285 
	C478.895782,197.426285 478.843689,197.469910 479.600952,196.909775 
	C479.730865,180.289719 479.871094,163.669708 479.942383,147.049393 
	C479.944580,146.534912 479.232025,146.017365 478.890381,145.560165 
	C478.890381,145.560165 478.951752,145.526627 479.022339,144.650131 
	C478.503967,143.805740 477.985596,142.961334 476.941986,141.526703 
	C471.923035,141.526062 466.500397,138.636841 462.006531,144.589554 
	C462.020996,170.709625 462.035461,196.829697 462.207306,223.692474 
	C465.189606,224.477737 468.171936,225.263000 471.038849,226.857040 
	C473.521118,227.181427 476.003418,227.505829 479.215118,227.149368 
M341.299255,209.027130 
	C339.888916,208.661682 338.478546,208.296234 337.014496,207.004776 
	C337.093201,201.323502 337.171875,195.642227 338.152313,189.967010 
	C344.123047,189.918396 350.093811,189.869781 356.879730,189.955200 
	C359.086761,185.065216 359.879547,180.132858 357.447327,174.857193 
	C350.917786,174.857193 344.510010,174.857193 338.056274,173.939789 
	C338.086487,168.055878 338.116730,162.171967 338.993378,156.252960 
	C346.015961,156.543747 353.041809,156.774536 360.059784,157.151154 
	C363.464264,157.333847 364.538727,155.825027 363.922424,151.837997 
	C363.892700,149.571716 363.862946,147.305435 363.988373,144.279373 
	C363.684723,143.156616 363.381042,142.033844 363.014557,140.985291 
	C363.014557,140.985291 363.099304,140.937622 362.670807,140.165527 
	C349.965881,140.112091 337.260895,140.033310 324.556183,140.064575 
	C323.744202,140.066559 322.934357,140.921158 321.964722,141.423752 
	C321.964722,141.423752 322.059387,141.558807 321.310394,142.102341 
	C321.188293,142.578415 320.959656,143.054443 320.959412,143.530563 
	C320.947327,168.303131 320.938751,193.075745 321.011749,217.848114 
	C321.015045,218.962967 321.776123,220.075607 322.123077,221.662460 
	C322.084259,221.989059 322.140564,222.298340 322.220215,223.513458 
	C332.420013,223.621002 342.619781,223.728546 353.725281,223.956802 
	C355.516571,223.972351 357.448639,224.411514 359.057037,223.876877 
	C360.487091,223.401535 361.558289,221.846695 362.962219,219.993164 
	C363.236389,217.647552 363.510559,215.301926 363.905670,212.148514 
	C362.608917,211.087982 361.350433,209.173996 360.008820,209.113876 
	C354.032562,208.845978 348.032532,209.108200 341.299255,209.027130 
M389.069916,193.021057 
	C393.786377,192.994507 398.507965,193.075424 403.214844,192.849091 
	C404.136108,192.804794 405.000153,191.570312 406.028534,190.452087 
	C406.028534,190.452087 405.900757,190.016266 405.902344,189.223282 
	C405.873383,185.461731 405.844452,181.700195 405.559418,177.149963 
	C399.755829,176.629150 393.952240,176.108353 388.357605,175.606293 
	C388.357605,169.264740 388.357605,163.203583 388.357605,156.997940 
	C395.689758,156.997940 402.671875,157.019562 409.652924,156.944122 
	C410.070831,156.939606 410.480347,156.158966 411.279846,155.145004 
	C411.488556,154.001633 411.697266,152.858261 411.902283,150.871277 
	C411.852875,148.613876 411.803497,146.356461 411.875061,143.413345 
	C411.527100,142.601913 411.179138,141.790482 410.603241,140.137604 
	C398.529633,140.093216 386.456024,140.029297 374.382507,140.047455 
	C373.557587,140.048706 372.733612,140.665207 371.977356,140.994507 
	C371.977356,140.994507 371.933533,140.942261 371.195648,141.270691 
	C370.784576,143.323547 369.986511,145.384003 370.026611,147.428009 
	C370.249847,158.797195 370.676483,170.162384 371.086517,181.568802 
	C371.086517,181.568802 371.128754,181.517624 370.388000,182.094849 
	C370.251251,188.876831 370.033997,195.658813 370.034698,202.440781 
	C370.034882,204.121307 370.741516,205.801773 371.082703,207.430618 
	C371.082703,207.430618 371.029297,207.468994 370.968384,208.486816 
	C370.966522,209.637848 370.962646,210.788895 370.963043,211.939926 
	C370.967957,225.770432 370.970062,225.794220 384.917480,224.651108 
	C385.620758,224.593475 386.240967,223.522598 387.751526,222.664749 
	C387.886932,212.773117 388.022308,202.881485 389.069916,193.021057 
M522.996765,225.998032 
	C522.996765,225.998032 522.948486,226.025620 522.937988,226.845261 
	C523.338928,227.689117 523.697632,229.240295 524.147400,229.267212 
	C528.554810,229.530975 532.977478,229.561264 537.395447,229.545807 
	C537.568481,229.545212 537.737610,228.416672 538.306702,227.172913 
	C539.242981,220.847702 536.329163,215.767731 532.945251,210.066452 
	C531.599731,205.769897 530.254272,201.473343 528.938843,196.463089 
	C528.337036,195.274933 527.735168,194.086792 527.030640,192.971375 
	C527.030640,192.971375 527.139282,192.892700 527.077271,192.121826 
	C525.631470,188.310165 524.543823,184.965332 526.552124,180.483932 
	C531.141113,170.244095 534.778015,159.565842 538.544495,148.974228 
	C540.386475,143.794647 539.373962,142.593735 533.073669,142.066711 
	C523.854431,142.023621 523.944885,142.053772 520.926208,151.111343 
	C518.738953,157.674210 516.271851,164.143814 513.670837,171.374329 
	C512.279846,167.704056 511.108643,164.767227 510.054169,161.789078 
	C508.971161,158.730408 507.821503,155.677750 507.016144,152.541550 
	C504.288544,141.919815 504.341858,141.904327 493.291168,141.960907 
	C492.294434,141.966003 491.297913,142.014145 489.450836,141.940735 
	C485.408356,142.943207 486.537109,146.461472 487.251434,148.414307 
	C490.533173,157.386398 494.304657,166.182480 498.023468,174.989761 
	C499.177307,177.722290 500.718903,180.291092 502.096252,183.704407 
	C497.422119,195.409576 492.748016,207.114761 487.749939,219.518066 
	C484.650665,225.308472 485.265289,226.596237 491.321106,227.052017 
	C491.967346,227.100662 492.605438,227.266815 493.245392,227.388489 
	C500.728943,228.811417 501.592499,228.221146 504.198059,220.719345 
	C506.598175,213.808975 509.161682,206.955368 511.653259,200.076782 
	C513.391479,202.242020 513.896301,204.437485 514.789307,206.461639 
	C516.493530,210.324371 518.419067,214.089478 520.720459,218.255829 
	C520.863342,218.824738 521.006165,219.393646 521.272644,220.713486 
	C521.547546,222.172592 521.822449,223.631699 522.159546,225.576050 
	C522.347839,225.882538 522.621887,226.041000 522.996765,225.998032 
M432.651154,141.138092 
	C428.362885,141.091064 424.059479,141.247253 419.791260,140.930298 
	C416.593018,140.692795 416.704742,142.383163 417.105255,144.555969 
	C417.105255,144.555969 417.133240,144.491165 416.399811,145.081482 
	C416.259766,145.716629 415.997864,146.351654 415.997253,146.986938 
	C415.973846,171.678574 415.962830,196.370239 416.015930,221.061768 
	C416.017944,221.997498 416.671417,222.931824 417.648163,224.308090 
	C421.415527,224.800140 425.169617,225.492798 428.952972,225.742996 
	C437.128265,226.283630 445.317566,226.618576 453.503204,226.992249 
	C456.370972,227.123154 458.453064,226.284729 457.972839,221.895767 
	C457.972839,218.763428 457.972839,215.631073 457.972839,211.051147 
	C451.539215,211.051147 445.344604,211.051147 438.781708,210.268478 
	C437.225922,210.069855 435.670166,209.871231 433.997284,209.657654 
	C433.997284,188.512146 434.019470,167.706757 433.955292,146.901596 
	C433.950165,145.235870 433.349518,143.571991 433.000275,141.989014 
	C433.000275,141.989014 433.050934,141.920090 432.651154,141.138092 
M233.982544,210.049515 
	C234.333252,208.680298 234.981628,207.312607 234.988663,205.941635 
	C235.059875,192.072556 235.051163,178.202805 234.976105,164.333725 
	C234.969910,163.187775 234.314484,162.045349 233.969574,160.063431 
	C232.506668,156.074051 231.895248,151.420700 229.407578,148.230377 
	C223.843155,141.094284 215.419189,139.798843 207.160019,141.244217 
	C199.417603,142.599152 191.991577,145.595245 189.853180,155.701309 
	C189.592514,157.644897 189.331848,159.588470 189.121780,161.579025 
	C189.121780,161.579025 189.171936,161.531586 188.410431,162.089981 
	C188.282776,175.678665 188.143280,189.267303 188.078445,202.856293 
	C188.076263,203.315628 188.826080,203.778564 189.084671,204.421112 
	C189.084671,204.421112 189.204239,204.616974 189.130661,205.524353 
	C189.388824,207.427353 189.646988,209.330338 189.852264,211.987122 
	C191.359222,221.971436 198.970322,226.420364 207.767181,225.909637 
	C210.418091,225.755722 213.089417,225.864105 215.728577,225.612823 
	C226.320816,224.604370 231.988602,220.403854 233.982544,210.049515 
M310.641327,141.191116 
	C305.781494,141.376923 300.921692,141.562714 295.267426,142.200119 
	C295.179016,166.315826 295.084839,190.431503 295.041595,214.547302 
	C295.040680,215.056076 295.627869,215.565918 295.954437,216.861359 
	C296.043274,218.164093 296.132111,219.466843 296.149323,221.590347 
	C298.423126,224.313614 309.282104,225.128220 311.525452,222.668243 
	C311.867828,222.292831 311.695587,221.448120 311.819000,220.505203 
	C311.819000,220.505203 311.804474,220.185074 312.644592,219.799713 
	C312.755707,194.550476 312.882141,169.301270 312.898468,144.051971 
	C312.898926,143.348755 311.720459,142.644791 310.641327,141.191116 
M278.304962,219.200974 
	C278.487946,218.930756 278.783264,218.681381 278.837860,218.387314 
	C282.886536,196.575104 286.965240,174.768295 290.928345,152.940475 
	C293.194702,140.458206 293.034363,140.485001 281.148285,140.803909 
	C277.897186,140.891144 276.515137,142.581741 276.066132,145.094345 
	C274.230377,155.366486 272.655121,165.684906 270.937592,175.978546 
	C269.703735,183.373520 268.396484,190.756241 267.038788,198.868607 
	C266.874237,199.680283 266.709686,200.491959 266.324860,202.390045 
	C263.068237,182.566650 260.044128,163.895889 256.886719,145.247726 
	C256.458191,142.716843 255.247116,140.637131 251.892715,140.987274 
	C248.927414,141.296799 245.914536,141.150681 242.204895,141.100510 
	C238.681427,144.266083 239.046204,151.432892 243.003952,156.924362 
	C243.407425,160.284393 243.810898,163.644409 244.115112,167.733566 
	C245.393661,175.628601 246.541748,183.547531 247.983627,191.412628 
	C249.801620,201.329422 251.859436,211.202271 253.968582,221.895386 
	C255.307480,222.942200 256.649231,224.883408 257.984802,224.879181 
	C263.426147,224.861969 268.902008,224.492508 274.280609,223.687759 
	C275.658508,223.481613 276.726898,221.206802 278.304962,219.200974 
z"/>
<path fill="#E22826" opacity="1.000000" stroke="none" 
	d="
M166.178574,221.082123 
	C166.137238,219.667587 166.095901,218.253036 166.466965,216.244263 
	C167.251953,214.436340 167.939896,213.224808 167.948196,212.008652 
	C168.029770,200.053009 168.040192,188.096237 167.941681,176.140869 
	C167.930389,174.771118 167.131134,173.407867 166.454193,171.967712 
	C165.377563,176.020996 164.543961,180.148148 163.710342,184.275314 
	C162.232346,191.610794 160.635544,198.925095 159.323837,206.290192 
	C158.612015,210.287079 158.445374,214.378235 157.915253,218.411423 
	C157.645050,220.467102 157.115280,222.488663 155.979538,224.803284 
	C151.523392,225.314957 147.790527,225.548950 143.794830,225.545654 
	C142.646057,222.944504 141.672852,220.608978 140.893723,218.210403 
	C139.579941,214.165939 138.389252,210.081482 137.146790,206.013855 
	C135.470978,198.345093 133.795166,190.676315 132.149551,182.200714 
	C131.929077,180.143661 131.678406,178.893463 131.427734,177.643250 
	C131.001099,177.714081 130.574463,177.784912 130.147842,177.855743 
	C130.070053,179.608353 129.927704,181.360870 129.925217,183.113586 
	C129.911530,192.729996 130.074905,202.349304 129.883987,211.961777 
	C129.779953,217.200867 129.094940,222.428436 128.671951,227.661194 
	C128.293137,228.010437 127.914307,228.359695 127.294083,228.388672 
	C127.365532,226.166656 127.312386,224.555664 124.633720,225.307037 
	C119.648911,226.705292 118.962669,223.800766 118.979736,219.880920 
	C119.036316,206.889160 118.999306,193.896988 118.999992,180.904984 
	C119.000549,170.411453 119.102699,159.916428 118.946136,149.425262 
	C118.898392,146.225937 120.316704,144.534653 123.188591,144.537247 
	C127.510002,144.541138 131.832809,145.048111 136.144409,145.453903 
	C136.295837,145.468155 136.282822,146.698059 136.432846,147.341217 
	C137.968658,153.925262 139.799423,160.454834 141.005188,167.098114 
	C142.752258,176.723999 143.952560,186.448654 145.653488,196.083969 
	C145.892181,197.436172 147.646286,198.520859 148.698944,199.729385 
	C149.775696,198.412018 151.548096,197.219803 151.811432,195.756088 
	C153.103394,188.575073 153.993988,181.321854 155.031219,173.686676 
	C155.035965,172.467209 155.035873,171.655197 155.027939,170.656067 
	C155.020096,170.468964 155.012421,170.094482 155.235245,169.779449 
	C156.306015,165.063507 157.524704,160.696411 157.929947,156.255112 
	C158.994064,144.592819 160.154221,143.375656 171.723877,143.420700 
	C175.997559,143.437332 178.214188,144.697281 178.149597,149.801392 
	C177.867096,172.125809 178.046631,194.455917 178.029617,216.783936 
	C178.025284,222.449905 176.806732,223.616394 171.223648,222.937195 
	C169.492355,222.726608 167.857544,221.722794 166.178574,221.082123 
z"/>
<path fill="#E12927" opacity="1.000000" stroke="none" 
	d="
M189.204239,204.616974 
	C189.204239,204.616974 189.084671,204.421112 189.121735,204.075531 
	C189.179764,203.560852 189.200729,203.391754 189.406540,202.837799 
	C189.503494,189.227814 189.415604,176.002686 189.288025,162.466156 
	C189.222885,161.947037 189.197403,161.739304 189.171936,161.531586 
	C189.171936,161.531586 189.121780,161.579025 189.423645,161.366516 
	C189.878815,159.072678 190.032135,156.991333 190.185455,154.909988 
	C191.991577,145.595245 199.417603,142.599152 207.160019,141.244217 
	C215.419189,139.798843 223.843155,141.094284 229.407578,148.230377 
	C231.895248,151.420700 232.506668,156.074051 233.884796,160.952240 
	C233.783295,169.272858 233.885788,176.707352 233.718277,184.135757 
	C233.528976,192.531235 233.097137,200.921249 232.585358,209.557007 
	C228.131073,219.204132 220.317566,222.333298 210.580765,222.423843 
	C201.404617,222.509155 194.481293,219.126328 190.510559,210.122955 
	C190.022537,208.034714 189.613388,206.325836 189.204239,204.616974 
M205.014709,158.857635 
	C204.648773,159.903610 204.282837,160.949585 203.481979,162.697495 
	C203.345490,177.094589 203.073212,191.492416 203.149643,205.888382 
	C203.174789,210.625122 206.844925,211.850128 210.956039,212.577042 
	C214.858917,213.267151 217.334763,211.657013 219.318985,208.719284 
	C219.546982,208.381714 219.060486,207.561569 218.909058,206.304916 
	C218.982712,205.871689 219.056366,205.438477 219.536743,204.379013 
	C219.693954,199.815826 219.849060,195.252548 220.008835,190.689453 
	C220.309128,182.113052 220.819153,173.535751 220.776855,164.961105 
	C220.765442,162.648346 219.081482,160.343842 218.007309,157.319977 
	C216.859772,153.133408 213.832077,152.145554 210.066437,152.981766 
	C207.399933,153.573914 204.402557,154.230698 205.014709,158.857635 
z"/>
<path fill="#E12B2A" opacity="1.000000" stroke="none" 
	d="
M490.301300,142.042313 
	C491.297913,142.014145 492.294434,141.966003 493.291168,141.960907 
	C504.341858,141.904327 504.288544,141.919815 507.016144,152.541550 
	C507.821503,155.677750 508.971161,158.730408 510.054169,161.789078 
	C511.108643,164.767227 512.279846,167.704056 513.670837,171.374329 
	C516.271851,164.143814 518.738953,157.674210 520.926208,151.111343 
	C523.944885,142.053772 523.854431,142.023621 533.611633,142.443787 
	C534.442810,144.937790 535.510986,147.314957 534.901855,149.128845 
	C531.323853,159.783371 527.447388,170.341537 523.477295,180.858826 
	C521.549072,185.966873 523.621521,189.582703 527.139282,192.892700 
	C527.139282,192.892700 527.030640,192.971375 527.074097,193.300171 
	C527.714600,194.811584 528.311707,195.994186 528.908752,197.176788 
	C530.254272,201.473343 531.599731,205.769897 532.956177,210.854401 
	C533.239197,213.106567 533.299133,214.653030 533.827942,216.017807 
	C534.902100,218.789856 535.151611,220.995575 531.999695,222.737320 
	C529.094360,224.342758 526.788452,224.414261 524.445801,221.834412 
	C523.638672,220.945511 522.264282,220.571671 521.149048,219.962555 
	C521.006165,219.393646 520.863342,218.824738 520.555908,217.744995 
	C519.536133,208.643219 516.163391,200.972748 512.161865,193.310043 
	C510.406708,195.122345 509.455963,196.791306 508.794067,198.567886 
	C505.947968,206.207016 503.250671,213.902313 500.329254,221.511917 
	C499.861908,222.729187 498.692169,224.254379 497.568085,224.540421 
	C493.070068,225.684982 489.556030,223.397507 488.073914,218.819946 
	C492.748016,207.114761 497.422119,195.409576 502.280396,183.059753 
	C500.427917,176.171936 498.272858,169.964264 496.385895,163.676178 
	C494.233093,156.502289 492.319092,149.256729 490.301300,142.042313 
z"/>
<path fill="#E12927" opacity="1.000000" stroke="none" 
	d="
M244.214371,167.004440 
	C243.810898,163.644409 243.407425,160.284393 243.194519,156.202621 
	C243.230927,150.722504 243.076797,145.964127 242.922668,141.205750 
	C245.914536,141.150681 248.927414,141.296799 251.892715,140.987274 
	C255.247116,140.637131 256.458191,142.716843 256.886719,145.247726 
	C260.044128,163.895889 263.068237,182.566650 266.324860,202.390045 
	C266.709686,200.491959 266.874237,199.680283 267.428833,198.389496 
	C268.609741,196.551880 269.831177,195.278275 270.118530,193.820541 
	C271.526489,186.678040 272.628754,179.476013 273.947296,172.314941 
	C275.600677,163.335159 277.292542,154.361267 279.100098,145.411560 
	C280.032532,140.795029 283.889252,141.810486 286.725525,142.399002 
	C287.691437,142.599442 288.691620,145.727264 288.570984,147.439606 
	C288.304474,151.221771 287.316132,154.950989 286.657379,158.707947 
	C283.764832,175.204865 280.676788,191.671341 278.080780,208.214935 
	C276.601410,217.642395 276.962738,217.702789 267.538300,219.338150 
	C267.211304,219.394897 266.895142,219.513855 266.568207,219.571198 
	C257.747101,221.118408 255.623367,219.695175 254.039536,210.976105 
	C251.612823,197.617035 249.301361,184.236572 246.770447,170.897568 
	C246.503174,169.488907 245.093872,168.296936 244.214371,167.004440 
z"/>
<path fill="#E22826" opacity="1.000000" stroke="none" 
	d="
M337.250580,189.960953 
	C337.171875,195.642227 337.093201,201.323502 337.100037,207.847900 
	C338.033325,209.375992 338.882660,210.653336 339.728577,210.651077 
	C345.842590,210.634781 351.955933,210.359726 358.367554,210.156647 
	C359.061798,210.167664 359.457977,210.188660 359.983398,210.570190 
	C361.795105,216.946091 361.037292,218.008636 354.891022,218.033020 
	C348.343872,218.059006 341.783173,218.268234 335.253815,217.920578 
	C330.964569,217.692215 326.720337,216.618713 322.402161,215.463196 
	C322.364227,192.048370 322.380096,169.094025 322.664001,145.967224 
	C323.320251,144.363480 323.708527,142.932190 324.554382,141.435349 
	C335.997498,141.413345 346.983124,141.456879 358.138672,141.790527 
	C361.207123,143.540192 361.960938,146.248093 360.600311,148.658798 
	C359.835022,150.014694 357.205658,150.795898 355.338013,150.963074 
	C349.651733,151.471970 343.927551,151.556686 337.979309,152.064575 
	C337.432312,152.672562 337.124084,153.022537 336.629211,153.705261 
	C336.019745,159.917191 335.399750,165.793610 335.316559,171.677643 
	C335.296448,173.099518 337.050812,174.546478 338.457764,176.002457 
	C343.156433,176.037704 347.402802,175.843140 351.608551,176.170547 
	C353.280060,176.300690 354.861572,177.587341 356.544678,178.775970 
	C356.416443,186.199524 356.416595,186.186203 349.290222,186.109909 
	C346.155487,186.076355 343.018311,186.047485 339.885376,186.131851 
	C337.370697,186.199570 336.136932,187.314789 337.250580,189.960953 
z"/>
<path fill="#DE2928" opacity="1.000000" stroke="none" 
	d="
M411.754089,144.099060 
	C411.803497,146.356461 411.852875,148.613876 411.446411,151.381134 
	C404.407562,151.969193 397.824524,152.040085 391.241699,152.129471 
	C388.826569,152.162277 386.365936,152.183899 386.792236,156.166641 
	C386.647430,161.889648 386.775574,167.215820 386.521576,172.523727 
	C386.341553,176.285172 387.375610,177.991684 391.525726,177.730072 
	C395.982666,177.449142 400.484833,177.886063 404.999695,178.461304 
	C404.999115,182.116272 404.966125,185.319672 404.559357,188.563370 
	C399.774567,188.513321 395.363373,188.348343 390.952728,188.363098 
	C388.638214,188.370834 386.028046,188.343445 386.695251,192.238678 
	C386.801025,192.658539 386.857788,192.822693 386.805328,193.445740 
	C386.711731,201.866882 386.727386,209.829147 386.615143,217.953491 
	C386.600189,218.483673 386.713135,218.851730 386.815613,219.475708 
	C386.794128,220.071640 386.783020,220.411636 386.646240,220.713959 
	C386.520508,220.676270 386.289856,220.801590 385.805542,220.826691 
	C381.008728,220.762634 376.696289,220.673477 372.375061,220.148804 
	C371.920624,215.631851 371.474976,211.550430 371.029297,207.468994 
	C371.029297,207.468994 371.082703,207.430618 371.282013,206.978577 
	C371.363800,198.190216 371.246277,189.853928 371.128754,181.517624 
	C371.128754,181.517624 371.086517,181.568802 371.378723,181.208420 
	C371.758453,167.546112 371.846008,154.244186 371.933533,140.942261 
	C371.933533,140.942261 371.977356,140.994507 372.403839,141.118988 
	C385.126160,141.303131 397.421967,141.362793 409.783142,141.713577 
	C410.483704,142.702820 411.118896,143.400940 411.754089,144.099060 
z"/>
<path fill="#DE2928" opacity="1.000000" stroke="none" 
	d="
M417.133240,144.491165 
	C417.133240,144.491165 417.105255,144.555969 417.454773,144.379944 
	C419.473877,143.457230 421.094666,142.243683 422.823364,142.063110 
	C426.200684,141.710297 429.638275,141.934662 433.050934,141.920074 
	C433.050934,141.920090 433.000275,141.989014 432.808105,142.384842 
	C432.661896,161.788086 432.707855,180.795502 432.585083,200.111450 
	C432.532379,202.010635 432.648376,203.601288 432.759644,205.462296 
	C432.760376,206.093063 432.765778,206.453506 432.613586,207.067566 
	C432.590240,208.249924 432.724426,209.178680 433.121094,210.425812 
	C435.305725,210.846527 437.227875,210.948837 439.149994,211.051147 
	C445.344604,211.051147 451.539215,211.051147 457.972839,211.051147 
	C457.972839,215.631073 457.972839,218.763428 457.528748,222.449524 
	C443.890594,222.363312 430.696503,221.723343 417.501801,220.609772 
	C417.478882,195.837524 417.456543,171.538879 417.580444,147.082870 
	C417.757385,146.785660 417.843750,146.628860 417.807373,146.509415 
	C417.727692,146.247482 417.585846,146.004456 417.420959,145.428589 
	C417.292755,144.899368 417.212982,144.695267 417.133240,144.491165 
z"/>
<path fill="#DE2928" opacity="1.000000" stroke="none" 
	d="
M478.843689,197.469910 
	C478.843689,197.469910 478.895782,197.426285 478.632477,197.714661 
	C478.559357,199.176453 478.749512,200.349854 478.939697,201.523270 
	C478.939697,201.523270 478.895355,201.574844 478.730286,202.042633 
	C478.518158,209.864655 478.471069,217.218887 478.228027,224.562988 
	C477.787964,224.645920 477.536346,224.708984 476.856445,224.737274 
	C472.082855,224.065643 467.729950,223.398773 463.311707,222.284912 
	C463.205017,197.645813 463.184601,173.453598 463.081726,149.261749 
	C463.073700,147.370071 462.489960,145.480865 462.173767,143.590500 
	C466.500397,138.636841 471.923035,141.526062 477.267181,142.208023 
	C478.045502,143.768448 478.498627,144.647537 478.951752,145.526627 
	C478.951752,145.526627 478.890381,145.560165 478.711609,146.014709 
	C478.636475,163.469467 478.740082,180.469696 478.843689,197.469910 
z"/>
<path fill="#C24242" opacity="1.000000" stroke="none" 
	d="
M244.164734,167.369003 
	C245.093872,168.296936 246.503174,169.488907 246.770447,170.897568 
	C249.301361,184.236572 251.612823,197.617035 254.039536,210.976105 
	C255.623367,219.695175 257.747101,221.118408 266.568207,219.571198 
	C266.895142,219.513855 267.211304,219.394897 267.538300,219.338150 
	C276.962738,217.702789 276.601410,217.642395 278.080780,208.214935 
	C280.676788,191.671341 283.764832,175.204865 286.657379,158.707947 
	C287.316132,154.950989 288.304474,151.221771 288.570984,147.439606 
	C288.691620,145.727264 287.691437,142.599442 286.725525,142.399002 
	C283.889252,141.810486 280.032532,140.795029 279.100098,145.411560 
	C277.292542,154.361267 275.600677,163.335159 273.947296,172.314941 
	C272.628754,179.476013 271.526489,186.678040 270.118530,193.820541 
	C269.831177,195.278275 268.609741,196.551880 267.470428,198.027405 
	C268.396484,190.756241 269.703735,183.373520 270.937592,175.978546 
	C272.655121,165.684906 274.230377,155.366486 276.066132,145.094345 
	C276.515137,142.581741 277.897186,140.891144 281.148285,140.803909 
	C293.034363,140.485001 293.194702,140.458206 290.928345,152.940475 
	C286.965240,174.768295 282.886536,196.575104 278.837860,218.387314 
	C278.783264,218.681381 278.487946,218.930756 277.729309,219.691147 
	C269.373718,220.485565 261.593750,220.789825 253.813782,221.094070 
	C251.859436,211.202271 249.801620,201.329422 247.983627,191.412628 
	C246.541748,183.547531 245.393661,175.628601 244.164734,167.369003 
z"/>
<path fill="#DE2928" opacity="1.000000" stroke="none" 
	d="
M155.026382,174.094147 
	C153.993988,181.321854 153.103394,188.575073 151.811432,195.756088 
	C151.548096,197.219803 149.775696,198.412018 148.698944,199.729385 
	C147.646286,198.520859 145.892181,197.436172 145.653488,196.083969 
	C143.952560,186.448654 142.752258,176.723999 141.005188,167.098114 
	C139.799423,160.454834 137.968658,153.925262 136.432846,147.341217 
	C136.282822,146.698059 136.295837,145.468155 136.144409,145.453903 
	C131.832809,145.048111 127.510002,144.541138 123.188591,144.537247 
	C120.316704,144.534653 118.898392,146.225937 118.946136,149.425262 
	C119.102699,159.916428 119.000549,170.411453 118.999992,180.904984 
	C118.999306,193.896988 119.036316,206.889160 118.979736,219.880920 
	C118.962669,223.800766 119.648911,226.705292 124.633720,225.307037 
	C127.312386,224.555664 127.365532,226.166656 127.036438,228.386078 
	C124.707176,228.780411 122.394135,228.857071 119.583969,228.665604 
	C119.086838,228.397476 119.002396,228.037582 118.994705,227.754135 
	C118.524208,226.931091 118.061401,226.391495 117.476860,225.408096 
	C117.306145,219.494278 117.232185,214.024353 117.212555,208.554230 
	C117.134033,186.674789 117.072380,164.795319 117.004486,142.915848 
	C117.004486,142.915848 116.996910,142.928101 117.358009,143.015091 
	C118.623482,142.750656 119.527847,142.399231 120.432213,142.047791 
	C120.432213,142.047791 120.551865,142.013992 121.059372,142.183533 
	C127.077965,142.222733 132.589050,142.092392 138.100128,141.962051 
	C138.100128,141.962051 138.029114,141.965912 137.865219,142.334625 
	C138.716507,146.056549 139.731689,149.409775 140.746887,152.763000 
	C143.103821,166.729401 145.460754,180.695801 147.817688,194.662216 
	C148.302795,194.678299 148.787918,194.694382 149.273041,194.710464 
	C150.530502,188.123703 151.787949,181.536957 153.411453,174.517075 
	C154.193787,174.087341 154.610092,174.090744 155.026382,174.094147 
z"/>
<path fill="#CF4747" opacity="1.000000" stroke="none" 
	d="
M311.804474,220.185074 
	C311.804474,220.185074 311.819000,220.505203 311.340027,220.643127 
	C305.980988,220.777237 301.100952,220.773407 296.220947,220.769577 
	C296.132111,219.466843 296.043274,218.164093 296.012024,215.999023 
	C296.066986,190.673965 296.064423,166.211243 296.061859,141.748520 
	C300.921692,141.562714 305.781494,141.376923 310.947662,141.976715 
	C311.500793,145.050385 311.962219,147.338516 311.961304,149.626465 
	C311.952026,173.146027 311.867798,196.665543 311.804474,220.185074 
M310.049500,144.572647 
	C307.997681,139.924316 303.955170,142.364059 300.927032,142.514679 
	C299.837769,142.568848 298.120300,145.933380 298.051880,147.836182 
	C297.741180,156.477524 297.909576,165.136353 297.918701,173.788879 
	C297.932190,186.601013 297.991516,199.413208 297.962708,212.225235 
	C297.946930,219.235825 302.827362,217.474411 306.973755,217.606628 
	C311.393005,217.747559 310.410614,214.461929 310.866089,212.115845 
	C311.115479,210.831177 310.959167,209.461441 310.935364,208.130981 
	C310.664825,193.009583 310.347504,177.888901 310.125732,162.766800 
	C310.040985,156.987198 310.168854,151.204483 310.049500,144.572647 
z"/>
<path fill="#C24242" opacity="1.000000" stroke="none" 
	d="
M166.113861,221.447510 
	C167.857544,221.722794 169.492355,222.726608 171.223648,222.937195 
	C176.806732,223.616394 178.025284,222.449905 178.029617,216.783936 
	C178.046631,194.455917 177.867096,172.125809 178.149597,149.801392 
	C178.214188,144.697281 175.997559,143.437332 171.723877,143.420700 
	C160.154221,143.375656 158.994064,144.592819 157.929947,156.255112 
	C157.524704,160.696411 156.306015,165.063507 155.026276,169.749725 
	C154.594467,170.035019 154.174149,170.003265 154.174133,170.003265 
	C155.468185,161.370758 156.691803,152.726196 158.165314,144.124435 
	C158.312515,143.265182 159.936142,142.115524 160.947159,142.037140 
	C166.803925,141.583008 172.682465,141.409760 178.757172,141.917053 
	C179.180969,144.979935 179.549789,147.264267 179.595428,149.555023 
	C179.779312,158.784973 179.863403,168.016907 179.984344,177.248108 
	C179.984344,177.248108 180.058289,177.555023 179.749435,178.054962 
	C179.317245,180.371918 179.095245,182.188477 179.086365,184.006073 
	C179.021408,197.316223 178.999161,210.626572 178.547546,224.009109 
	C174.156845,224.318146 170.182022,224.554916 166.207214,224.791702 
	C166.154526,223.798767 166.101837,222.805817 166.113861,221.447510 
z"/>
<path fill="#9A3A38" opacity="1.000000" stroke="none" 
	d="
M487.911926,219.169006 
	C489.556030,223.397507 493.070068,225.684982 497.568085,224.540421 
	C498.692169,224.254379 499.861908,222.729187 500.329254,221.511917 
	C503.250671,213.902313 505.947968,206.207016 508.794067,198.567886 
	C509.455963,196.791306 510.406708,195.122345 512.161865,193.310043 
	C516.163391,200.972748 519.536133,208.643219 520.322083,217.564636 
	C518.419067,214.089478 516.493530,210.324371 514.789307,206.461639 
	C513.896301,204.437485 513.391479,202.242020 511.653259,200.076782 
	C509.161682,206.955368 506.598175,213.808975 504.198059,220.719345 
	C501.592499,228.221146 500.728943,228.811417 493.245392,227.388489 
	C492.605438,227.266815 491.967346,227.100662 491.321106,227.052017 
	C485.265289,226.596237 484.650665,225.308472 487.911926,219.169006 
z"/>
<path fill="#471F1D" opacity="1.000000" stroke="none" 
	d="
M190.589417,210.502319 
	C194.481293,219.126328 201.404617,222.509155 210.580765,222.423843 
	C220.317566,222.333298 228.131073,219.204132 232.621674,209.842255 
	C233.214020,210.222122 233.584641,210.560120 233.955276,210.898132 
	C231.988602,220.403854 226.320816,224.604370 215.728577,225.612823 
	C213.089417,225.864105 210.418091,225.755722 207.767181,225.909637 
	C198.970322,226.420364 191.359222,221.971436 190.002975,211.490204 
	C190.360519,210.884155 190.505753,210.720490 190.589417,210.502319 
z"/>
<path fill="#471F1D" opacity="1.000000" stroke="none" 
	d="
M417.502411,221.083374 
	C430.696503,221.723343 443.890594,222.363312 457.520630,222.894989 
	C458.453064,226.284729 456.370972,227.123154 453.503204,226.992249 
	C445.317566,226.618576 437.128265,226.283630 428.952972,225.742996 
	C425.169617,225.492798 421.415527,224.800140 417.364197,223.734772 
	C417.220917,222.468750 417.361664,221.776062 417.502411,221.083374 
z"/>
<path fill="#9A3A38" opacity="1.000000" stroke="none" 
	d="
M527.108276,192.507263 
	C523.621521,189.582703 521.549072,185.966873 523.477295,180.858826 
	C527.447388,170.341537 531.323853,159.783371 534.901855,149.128845 
	C535.510986,147.314957 534.442810,144.937790 534.050781,142.484558 
	C539.373962,142.593735 540.386475,143.794647 538.544495,148.974228 
	C534.778015,159.565842 531.141113,170.244095 526.552124,180.483932 
	C524.543823,184.965332 525.631470,188.310165 527.108276,192.507263 
z"/>
<path fill="#CF4747" opacity="1.000000" stroke="none" 
	d="
M322.455933,215.923676 
	C326.720337,216.618713 330.964569,217.692215 335.253815,217.920578 
	C341.783173,218.268234 348.343872,218.059006 354.891022,218.033020 
	C361.037292,218.008636 361.795105,216.946091 360.311462,210.562012 
	C361.601776,211.114319 362.693237,212.035309 363.784729,212.956314 
	C363.510559,215.301926 363.236389,217.647552 362.419434,220.392426 
	C350.480072,220.786850 339.082489,220.704483 327.688141,220.859940 
	C325.958313,220.883545 324.243561,222.011337 322.458435,222.654663 
	C322.395050,222.680908 322.292023,222.590317 322.292023,222.590317 
	C322.140564,222.298340 322.084259,221.989059 322.193207,220.983948 
	C322.327545,218.844864 322.391724,217.384262 322.455933,215.923676 
z"/>
<path fill="#9A3A38" opacity="1.000000" stroke="none" 
	d="
M489.876068,141.991516 
	C492.319092,149.256729 494.233093,156.502289 496.385895,163.676178 
	C498.272858,169.964264 500.427917,176.171936 502.273743,182.674988 
	C500.718903,180.291092 499.177307,177.722290 498.023468,174.989761 
	C494.304657,166.182480 490.533173,157.386398 487.251434,148.414307 
	C486.537109,146.461472 485.408356,142.943207 489.876068,141.991516 
z"/>
<path fill="#CF4747" opacity="1.000000" stroke="none" 
	d="
M521.210815,220.338013 
	C522.264282,220.571671 523.638672,220.945511 524.445801,221.834412 
	C526.788452,224.414261 529.094360,224.342758 531.999695,222.737320 
	C535.151611,220.995575 534.902100,218.789856 533.827942,216.017807 
	C533.299133,214.653030 533.239197,213.106567 532.991821,211.229553 
	C536.329163,215.767731 539.242981,220.847702 537.694092,227.557434 
	C532.370483,227.303177 527.659485,226.664398 522.948486,226.025604 
	C522.948486,226.025620 522.996765,225.998032 522.894653,225.821701 
	C522.582703,225.433060 522.350952,225.248199 522.097351,225.090790 
	C521.822449,223.631699 521.547546,222.172592 521.210815,220.338013 
z"/>
<path fill="#471F1D" opacity="1.000000" stroke="none" 
	d="
M386.901855,155.762009 
	C386.365936,152.183899 388.826569,152.162277 391.241699,152.129471 
	C397.824524,152.040085 404.407562,151.969193 411.448273,151.802948 
	C411.697266,152.858261 411.488556,154.001633 410.637207,155.514465 
	C402.296997,155.843292 394.599426,155.802658 386.901855,155.762009 
z"/>
<path fill="#FACDCC" opacity="1.000000" stroke="none" 
	d="
M386.792236,156.166641 
	C394.599426,155.802658 402.296997,155.843292 410.444153,155.811707 
	C410.480347,156.158966 410.070831,156.939606 409.652924,156.944122 
	C402.671875,157.019562 395.689758,156.997940 388.357605,156.997940 
	C388.357605,163.203583 388.357605,169.264740 388.357605,175.606293 
	C393.952240,176.108353 399.755829,176.629150 405.473846,177.543701 
	C405.388275,177.937424 404.967285,178.009720 404.967285,178.009720 
	C400.484833,177.886063 395.982666,177.449142 391.525726,177.730072 
	C387.375610,177.991684 386.341553,176.285172 386.521576,172.523727 
	C386.775574,167.215820 386.647430,161.889648 386.792236,156.166641 
z"/>
<path fill="#471F1D" opacity="1.000000" stroke="none" 
	d="
M337.701447,189.963989 
	C336.136932,187.314789 337.370697,186.199570 339.885376,186.131851 
	C343.018311,186.047485 346.155487,186.076355 349.290222,186.109909 
	C356.416595,186.186203 356.416443,186.199524 356.591370,179.121643 
	C356.406433,182.632950 356.235474,186.227051 356.064545,189.821167 
	C350.093811,189.869781 344.123047,189.918396 337.701447,189.963989 
z"/>
<path fill="#61443F" opacity="1.000000" stroke="none" 
	d="
M322.521820,222.628403 
	C324.243561,222.011337 325.958313,220.883545 327.688141,220.859940 
	C339.082489,220.704483 350.480072,220.786850 362.332245,220.779999 
	C361.558289,221.846695 360.487091,223.401535 359.057037,223.876877 
	C357.448639,224.411514 355.516571,223.972351 352.952759,223.655914 
	C350.366577,223.289124 348.553467,223.202362 346.739258,223.160889 
	C338.666931,222.976318 330.594330,222.804688 322.521820,222.628403 
z"/>
<path fill="#FACDCC" opacity="1.000000" stroke="none" 
	d="
M119.002396,228.037582 
	C119.002396,228.037582 119.086838,228.397476 119.164238,228.565338 
	C117.006523,229.407272 115.950478,228.918182 115.964211,226.244278 
	C116.106201,198.605835 116.149864,170.966904 116.612686,143.121979 
	C117.072380,164.795319 117.134033,186.674789 117.212555,208.554230 
	C117.232185,214.024353 117.306145,219.494278 117.384102,225.715347 
	C117.942848,226.990128 118.472618,227.513855 119.002396,228.037582 
z"/>
<path fill="#DA7B7F" opacity="1.000000" stroke="none" 
	d="
M163.874207,183.927673 
	C164.543961,180.148148 165.377563,176.020996 166.486053,172.433868 
	C166.792053,184.903458 166.857040,196.833130 166.809204,208.762344 
	C166.803558,210.170212 166.178955,211.575607 165.841278,212.982147 
	C165.574326,211.592010 165.040237,210.193161 165.085159,208.813171 
	C165.321274,201.557526 165.797104,194.308441 165.939102,187.052170 
	C165.961487,185.907639 164.703857,184.738037 163.874207,183.927673 
z"/>
<path fill="#FACDCC" opacity="1.000000" stroke="none" 
	d="
M312.224548,219.992401 
	C311.867798,196.665543 311.952026,173.146027 311.961304,149.626465 
	C311.962219,147.338516 311.500793,145.050385 311.172852,142.351746 
	C311.720459,142.644791 312.898926,143.348755 312.898468,144.051971 
	C312.882141,169.301270 312.755707,194.550476 312.224548,219.992401 
z"/>
<path fill="#FACDCC" opacity="1.000000" stroke="none" 
	d="
M417.501801,220.609772 
	C417.361664,221.776062 417.220917,222.468750 417.050751,223.514130 
	C416.671417,222.931824 416.017944,221.997498 416.015930,221.061768 
	C415.962830,196.370239 415.973846,171.678574 415.997253,146.986938 
	C415.997864,146.351654 416.259766,145.716629 416.766541,144.786316 
	C417.212982,144.695267 417.292755,144.899368 417.335907,145.798767 
	C417.344269,146.742783 417.389252,146.991501 417.434204,147.240219 
	C417.456543,171.538879 417.478882,195.837524 417.501801,220.609772 
z"/>
<path fill="#E99D9F" opacity="1.000000" stroke="none" 
	d="
M462.090149,144.090027 
	C462.489960,145.480865 463.073700,147.370071 463.081726,149.261749 
	C463.184601,173.453598 463.205017,197.645813 462.992340,222.422791 
	C462.508820,222.988342 462.279358,222.969055 462.049927,222.949768 
	C462.035461,196.829697 462.020996,170.709625 462.090149,144.090027 
z"/>
<path fill="#61443F" opacity="1.000000" stroke="none" 
	d="
M253.891190,221.494720 
	C261.593750,220.789825 269.373718,220.485565 277.545593,220.031860 
	C276.726898,221.206802 275.658508,223.481613 274.280609,223.687759 
	C268.902008,224.492508 263.426147,224.861969 257.984802,224.879181 
	C256.649231,224.883408 255.307480,222.942200 253.891190,221.494720 
z"/>
<path fill="#E99D9F" opacity="1.000000" stroke="none" 
	d="
M322.402161,215.463196 
	C322.391724,217.384262 322.327545,218.844864 322.223785,220.747375 
	C321.776123,220.075607 321.015045,218.962967 321.011749,217.848114 
	C320.938751,193.075745 320.947327,168.303131 320.959412,143.530563 
	C320.959656,143.054443 321.188293,142.578415 321.767761,142.287140 
	C322.282074,143.694534 322.339050,144.917099 322.395996,146.139679 
	C322.380096,169.094025 322.364227,192.048370 322.402161,215.463196 
z"/>
<path fill="#FACDCC" opacity="1.000000" stroke="none" 
	d="
M295.664642,141.974319 
	C296.064423,166.211243 296.066986,190.673965 296.005127,215.605972 
	C295.627869,215.565918 295.040680,215.056076 295.041595,214.547302 
	C295.084839,190.431503 295.179016,166.315826 295.664642,141.974319 
z"/>
<path fill="#FACDCC" opacity="1.000000" stroke="none" 
	d="
M438.965851,210.659821 
	C437.227875,210.948837 435.305725,210.846527 433.204559,210.016434 
	C432.940735,208.463745 432.855957,207.638840 432.771179,206.813934 
	C432.765778,206.453506 432.760376,206.093063 432.872742,205.021057 
	C432.911621,202.807281 432.832733,201.305099 432.753815,199.802917 
	C432.707855,180.795502 432.661896,161.788086 432.820801,142.343964 
	C433.349518,143.571991 433.950165,145.235870 433.955292,146.901596 
	C434.019470,167.706757 433.997284,188.512146 433.997284,209.657654 
	C435.670166,209.871231 437.225922,210.069855 438.965851,210.659821 
z"/>
<path fill="#471F1D" opacity="1.000000" stroke="none" 
	d="
M386.646210,191.982956 
	C386.028046,188.343445 388.638214,188.370834 390.952728,188.363098 
	C395.363373,188.348343 399.774567,188.513321 404.670410,188.852676 
	C405.403778,189.406540 405.652283,189.711395 405.900757,190.016266 
	C405.900757,190.016266 406.028534,190.452087 405.621582,190.930084 
	C399.025146,191.599701 392.835693,191.791321 386.646210,191.982956 
z"/>
<path fill="#DA7B7F" opacity="1.000000" stroke="none" 
	d="
M371.564606,141.106476 
	C371.846008,154.244186 371.758453,167.546112 371.352203,181.188477 
	C370.676483,170.162384 370.249847,158.797195 370.026611,147.428009 
	C369.986511,145.384003 370.784576,143.323547 371.564606,141.106476 
z"/>
<path fill="#CF4747" opacity="1.000000" stroke="none" 
	d="
M338.218109,151.806549 
	C343.927551,151.556686 349.651733,151.471970 355.338013,150.963074 
	C357.205658,150.795898 359.835022,150.014694 360.600311,148.658798 
	C361.960938,146.248093 361.207123,143.540192 358.559937,141.674896 
	C360.240601,141.158646 361.669952,141.048126 363.099304,140.937622 
	C363.099304,140.937622 363.014557,140.985291 362.820007,141.268799 
	C363.028046,142.714584 363.430634,143.876862 363.833221,145.039154 
	C363.862946,147.305435 363.892700,149.571716 363.595520,152.280258 
	C362.891418,152.739700 362.514282,152.756897 361.782623,152.549072 
	C353.691467,152.151550 345.954773,151.979050 338.218109,151.806549 
z"/>
<path fill="#E99D9F" opacity="1.000000" stroke="none" 
	d="
M129.119904,227.795990 
	C129.094940,222.428436 129.779953,217.200867 129.883987,211.961777 
	C130.074905,202.349304 129.911530,192.729996 129.925217,183.113586 
	C129.927704,181.360870 130.070053,179.608353 130.147842,177.855743 
	C130.574463,177.784912 131.001099,177.714081 131.427734,177.643250 
	C131.678406,178.893463 131.929077,180.143661 132.199707,181.802582 
	C131.804626,183.578033 131.039810,184.942047 131.029068,186.311966 
	C130.930847,198.852783 131.005249,211.395004 130.897308,223.935684 
	C130.885818,225.271103 130.031296,226.599258 129.119904,227.795990 
z"/>
<path fill="#471F1D" opacity="1.000000" stroke="none" 
	d="
M144.057678,225.782959 
	C147.790527,225.548950 151.523392,225.314957 155.706665,225.079391 
	C154.515366,231.677765 148.465622,228.192383 144.688828,229.939651 
	C142.967316,230.736069 140.617599,230.069885 141.265442,226.645050 
	C142.456192,226.074646 143.256927,225.928802 144.057678,225.782959 
z"/>
<path fill="#E99D9F" opacity="1.000000" stroke="none" 
	d="
M233.968903,210.473816 
	C233.584641,210.560120 233.214020,210.222122 232.807068,209.598877 
	C233.097137,200.921249 233.528976,192.531235 233.718277,184.135757 
	C233.885788,176.707352 233.783295,169.272858 233.880356,161.371155 
	C234.314484,162.045349 234.969910,163.187775 234.976105,164.333725 
	C235.051163,178.202805 235.059875,192.072556 234.988663,205.941635 
	C234.981628,207.312607 234.333252,208.680298 233.968903,210.473816 
z"/>
<path fill="#FACDCC" opacity="1.000000" stroke="none" 
	d="
M479.222321,197.189850 
	C478.740082,180.469696 478.636475,163.469467 478.692780,145.985260 
	C479.232025,146.017365 479.944580,146.534912 479.942383,147.049393 
	C479.871094,163.669708 479.730865,180.289719 479.222321,197.189850 
z"/>
<path fill="#9A3A38" opacity="1.000000" stroke="none" 
	d="
M143.794830,225.545670 
	C143.256927,225.928802 142.456192,226.074646 141.248154,226.238495 
	C139.884262,223.437622 138.609711,220.680069 138.050995,217.784424 
	C137.341675,214.108215 137.213211,210.319946 136.990540,206.296921 
	C138.389252,210.081482 139.579941,214.165939 140.893723,218.210403 
	C141.672852,220.608978 142.646057,222.944504 143.794830,225.545670 
z"/>
<path fill="#61443F" opacity="1.000000" stroke="none" 
	d="
M362.137115,152.774063 
	C362.514282,152.756897 362.891418,152.739700 363.551788,152.700256 
	C364.538727,155.825027 363.464264,157.333847 360.059784,157.151154 
	C353.041809,156.774536 346.015961,156.543747 338.593079,155.906143 
	C338.145416,155.321091 338.098083,155.082870 338.519257,154.831497 
	C345.275543,154.874573 351.567352,155.067520 357.848175,154.884384 
	C359.297089,154.842117 360.708466,153.511688 362.137115,152.774063 
z"/>
<path fill="#CF4747" opacity="1.000000" stroke="none" 
	d="
M338.050781,154.844635 
	C338.098083,155.082870 338.145416,155.321091 338.169861,155.923691 
	C338.116730,162.171967 338.086487,168.055878 338.039490,174.678284 
	C338.011566,175.605133 338.000397,175.793503 337.989197,175.981903 
	C337.050812,174.546478 335.296448,173.099518 335.316559,171.677643 
	C335.399750,165.793610 336.019745,159.917191 336.747253,153.919205 
	C337.384888,154.148499 337.717834,154.496567 338.050781,154.844635 
z"/>
<path fill="#DA7B7F" opacity="1.000000" stroke="none" 
	d="
M386.289856,220.801590 
	C386.289856,220.801590 386.520508,220.676270 386.771240,221.065186 
	C386.981262,221.943893 386.940582,222.433701 386.899902,222.923492 
	C386.240967,223.522598 385.620758,224.593475 384.917480,224.651108 
	C370.970062,225.794220 370.967957,225.770432 370.963043,211.939926 
	C370.962646,210.788895 370.966522,209.637848 370.998840,207.977905 
	C371.474976,211.550430 371.920624,215.631851 372.309509,220.599548 
	C374.759491,223.730942 383.400391,224.532913 385.754974,222.635742 
	C386.161774,222.307983 386.122864,221.427017 386.289856,220.801590 
z"/>
<path fill="#DE2928" opacity="1.000000" stroke="none" 
	d="
M165.918961,213.355698 
	C166.178955,211.575607 166.803558,210.170212 166.809204,208.762344 
	C166.857040,196.833130 166.792053,184.903458 166.729065,172.507751 
	C167.131134,173.407867 167.930389,174.771118 167.941681,176.140869 
	C168.040192,188.096237 168.029770,200.053009 167.948196,212.008652 
	C167.939896,213.224808 167.251953,214.436340 166.539764,215.825119 
	C166.132309,215.243240 166.064484,214.486237 165.918961,213.355698 
z"/>
<path fill="#61443F" opacity="1.000000" stroke="none" 
	d="
M296.185120,221.179962 
	C301.100952,220.773407 305.980988,220.777237 311.311218,220.800751 
	C311.695587,221.448120 311.867828,222.292831 311.525452,222.668243 
	C309.282104,225.128220 298.423126,224.313614 296.185120,221.179962 
z"/>
<path fill="#DA7B7F" opacity="1.000000" stroke="none" 
	d="
M178.963455,223.936859 
	C178.999161,210.626572 179.021408,197.316223 179.086365,184.006073 
	C179.095245,182.188477 179.317245,180.371918 179.682373,178.197861 
	C179.949463,192.901321 179.974762,207.961823 179.726685,223.542496 
	C179.290009,224.020737 179.126724,223.978806 178.963455,223.936859 
z"/>
<path fill="#DA7B7F" opacity="1.000000" stroke="none" 
	d="
M338.457764,176.002441 
	C338.000397,175.793503 338.011566,175.605133 338.062500,175.136993 
	C344.510010,174.857193 350.917786,174.857193 357.447327,174.857193 
	C359.879547,180.132858 359.086761,185.065216 356.472137,189.888184 
	C356.235474,186.227051 356.406433,182.632950 356.530701,178.693146 
	C354.861572,177.587341 353.280060,176.300690 351.608551,176.170547 
	C347.402802,175.843140 343.156433,176.037704 338.457764,176.002441 
z"/>
<path fill="#471F1D" opacity="1.000000" stroke="none" 
	d="
M178.547546,224.009109 
	C179.126724,223.978806 179.290009,224.020737 179.699951,224.007477 
	C177.957794,228.816589 169.409256,229.837357 166.146271,225.199570 
	C170.182022,224.554916 174.156845,224.318146 178.547546,224.009109 
z"/>
<path fill="#FACDCC" opacity="1.000000" stroke="none" 
	d="
M189.221695,203.222656 
	C189.200729,203.391754 189.179764,203.560852 189.192093,203.984879 
	C188.826080,203.778564 188.076263,203.315628 188.078445,202.856293 
	C188.143280,189.267303 188.282776,175.678665 188.791183,161.810791 
	C189.197403,161.739304 189.222885,161.947037 189.156464,162.936462 
	C189.116928,176.886337 189.169312,190.054504 189.221695,203.222656 
z"/>
<path fill="#61443F" opacity="1.000000" stroke="none" 
	d="
M522.943237,226.435425 
	C527.659485,226.664398 532.370483,227.303177 537.494995,227.877823 
	C537.737610,228.416672 537.568481,229.545212 537.395447,229.545807 
	C532.977478,229.561264 528.554810,229.530975 524.147400,229.267212 
	C523.697632,229.240295 523.338928,227.689117 522.943237,226.435425 
z"/>
<path fill="#FACDCC" opacity="1.000000" stroke="none" 
	d="
M362.885071,140.551575 
	C361.669952,141.048126 360.240601,141.158646 358.389984,141.384781 
	C346.983124,141.456879 335.997498,141.413345 324.234772,141.337021 
	C323.012939,141.329193 322.568207,141.354156 322.123505,141.379120 
	C322.934357,140.921158 323.744202,140.066559 324.556183,140.064575 
	C337.260895,140.033310 349.965881,140.112091 362.885071,140.551575 
z"/>
<path fill="#FACDCC" opacity="1.000000" stroke="none" 
	d="
M409.717804,141.422455 
	C397.421967,141.362793 385.126160,141.303131 372.369751,141.119537 
	C372.733612,140.665207 373.557587,140.048706 374.382507,140.047455 
	C386.456024,140.029297 398.529633,140.093216 410.424133,140.631897 
	C410.069244,141.224945 409.893524,141.323700 409.717804,141.422455 
z"/>
<path fill="#C24242" opacity="1.000000" stroke="none" 
	d="
M242.563782,141.153137 
	C243.076797,145.964127 243.230927,150.722504 243.175934,155.775055 
	C239.046204,151.432892 238.681427,144.266083 242.563782,141.153137 
z"/>
<path fill="#FACDCC" opacity="1.000000" stroke="none" 
	d="
M180.367584,177.007889 
	C179.863403,168.016907 179.779312,158.784973 179.595428,149.555023 
	C179.549789,147.264267 179.180969,144.979935 178.983231,142.261612 
	C179.677536,142.684158 180.929520,143.535370 180.932999,144.391693 
	C180.977020,155.183258 180.840897,165.975555 180.367584,177.007889 
z"/>
<path fill="#471F1D" opacity="1.000000" stroke="none" 
	d="
M462.128601,223.321121 
	C462.279358,222.969055 462.508820,222.988342 463.057678,222.869766 
	C467.729950,223.398773 472.082855,224.065643 476.679993,225.131897 
	C475.000946,225.703598 473.077576,225.875931 471.154236,226.048248 
	C468.171936,225.263000 465.189606,224.477737 462.128601,223.321121 
z"/>
<path fill="#E99D9F" opacity="1.000000" stroke="none" 
	d="
M322.458435,222.654663 
	C330.594330,222.804688 338.666931,222.976318 346.739258,223.160889 
	C348.553467,223.202362 350.366577,223.289124 352.499878,223.595566 
	C342.619781,223.728546 332.420013,223.621002 322.256104,223.051880 
	C322.292023,222.590317 322.395050,222.680908 322.458435,222.654663 
z"/>
<path fill="#FACDCC" opacity="1.000000" stroke="none" 
	d="
M387.325714,222.794128 
	C386.940582,222.433701 386.981262,221.943893 386.896973,221.102875 
	C386.783020,220.411636 386.794128,220.071640 386.872986,219.113434 
	C386.874847,218.260635 386.808929,218.026016 386.743011,217.791397 
	C386.727386,209.829147 386.711731,201.866882 387.116211,193.449875 
	C387.743439,192.993347 387.950592,192.991592 388.157715,192.989853 
	C388.022308,202.881485 387.886932,212.773117 387.325714,222.794128 
z"/>
<path fill="#CF4747" opacity="1.000000" stroke="none" 
	d="
M358.069489,210.166641 
	C351.955933,210.359726 345.842590,210.634781 339.728577,210.651077 
	C338.882660,210.653336 338.033325,209.375992 337.126892,208.310913 
	C338.478546,208.296234 339.888916,208.661682 342.030212,209.295685 
	C347.863953,209.765030 352.966736,209.965836 358.069489,210.166641 
z"/>
<path fill="#DA7B7F" opacity="1.000000" stroke="none" 
	d="
M358.367554,210.156647 
	C352.966736,209.965836 347.863953,209.765030 342.401154,209.371552 
	C348.032532,209.108200 354.032562,208.845978 360.008820,209.113876 
	C361.350433,209.173996 362.608917,211.087982 363.845215,212.552414 
	C362.693237,212.035309 361.601776,211.114319 360.182190,210.201492 
	C359.457977,210.188660 359.061798,210.167664 358.367554,210.156647 
z"/>
<path fill="#FACDCC" opacity="1.000000" stroke="none" 
	d="
M370.758362,181.806244 
	C371.246277,189.853928 371.363800,198.190216 371.302368,207.004395 
	C370.741516,205.801773 370.034882,204.121307 370.034698,202.440781 
	C370.033997,195.658813 370.251251,188.876831 370.758362,181.806244 
z"/>
<path fill="#FACDCC" opacity="1.000000" stroke="none" 
	d="
M478.423981,224.573105 
	C478.471069,217.218887 478.518158,209.864655 478.703613,202.021561 
	C479.234711,202.706192 479.985992,203.887146 479.961761,205.051971 
	C479.808502,212.419754 479.483490,219.783981 478.971008,226.938568 
	C478.625916,226.009537 478.524963,225.291321 478.423981,224.573105 
z"/>
<path fill="#E99D9F" opacity="1.000000" stroke="none" 
	d="
M388.613831,193.005463 
	C387.950592,192.991592 387.743439,192.993347 387.225403,192.990997 
	C386.857788,192.822693 386.801025,192.658539 386.695251,192.238678 
	C392.835693,191.791321 399.025146,191.599701 405.552612,191.146423 
	C405.000153,191.570312 404.136108,192.804794 403.214844,192.849091 
	C398.507965,193.075424 393.786377,192.994507 388.613831,193.005463 
z"/>
<path fill="#DA7B7F" opacity="1.000000" stroke="none" 
	d="
M432.851044,141.529083 
	C429.638275,141.934662 426.200684,141.710297 422.823364,142.063110 
	C421.094666,142.243683 419.473877,143.457230 417.421448,144.368454 
	C416.704742,142.383163 416.593018,140.692795 419.791260,140.930298 
	C424.059479,141.247253 428.362885,141.091064 432.851044,141.529083 
z"/>
<path fill="#E99D9F" opacity="1.000000" stroke="none" 
	d="
M405.901550,189.619781 
	C405.652283,189.711395 405.403778,189.406540 405.044250,188.812378 
	C404.966125,185.319672 404.999115,182.116272 404.999695,178.461304 
	C404.967285,178.009720 405.388275,177.937424 405.601868,177.938034 
	C405.844452,181.700195 405.873383,185.461731 405.901550,189.619781 
z"/>
<path fill="#DA7B7F" opacity="1.000000" stroke="none" 
	d="
M478.228027,224.562988 
	C478.524963,225.291321 478.625916,226.009537 478.606293,227.278992 
	C476.003418,227.505829 473.521118,227.181427 471.096558,226.452652 
	C473.077576,225.875931 475.000946,225.703598 477.100739,225.136658 
	C477.536346,224.708984 477.787964,224.645920 478.228027,224.562988 
z"/>
<path fill="#FACDCC" opacity="1.000000" stroke="none" 
	d="
M140.745270,152.374268 
	C139.731689,149.409775 138.716507,146.056549 137.866241,142.299072 
	C138.935318,145.258392 139.839493,148.621964 140.745270,152.374268 
z"/>
<path fill="#FACDCC" opacity="1.000000" stroke="none" 
	d="
M137.890213,141.573395 
	C132.589050,142.092392 127.077965,142.222733 121.076622,142.243240 
	C126.284340,141.817200 131.982315,141.500977 137.890213,141.573395 
z"/>
<path fill="#DA7B7F" opacity="1.000000" stroke="none" 
	d="
M190.019318,155.305649 
	C190.032135,156.991333 189.878815,159.072678 189.398331,161.343048 
	C189.331848,159.588470 189.592514,157.644897 190.019318,155.305649 
z"/>
<path fill="#CF4747" opacity="1.000000" stroke="none" 
	d="
M322.044128,141.401428 
	C322.568207,141.354156 323.012939,141.329193 323.777222,141.402557 
	C323.708527,142.932190 323.320251,144.363480 322.664001,145.967224 
	C322.339050,144.917099 322.282074,143.694534 322.142242,142.015381 
	C322.059387,141.558807 321.964722,141.423752 322.044128,141.401428 
z"/>
<path fill="#DA7B7F" opacity="1.000000" stroke="none" 
	d="
M190.510559,210.122955 
	C190.505753,210.720490 190.360519,210.884155 190.029419,211.113312 
	C189.646988,209.330338 189.388824,207.427353 189.167450,205.070663 
	C189.613388,206.325836 190.022537,208.034714 190.510559,210.122955 
z"/>
<path fill="#C24242" opacity="1.000000" stroke="none" 
	d="
M155.031219,173.686676 
	C154.610092,174.090744 154.193787,174.087341 153.465851,174.100250 
	C153.386414,173.252899 153.618637,172.389252 154.220978,171.204773 
	C154.591064,170.883942 155.035782,170.843185 155.035782,170.843185 
	C155.035873,171.655197 155.035965,172.467209 155.031219,173.686676 
z"/>
<path fill="#DA7B7F" opacity="1.000000" stroke="none" 
	d="
M409.783142,141.713562 
	C409.893524,141.323700 410.069244,141.224945 410.538086,141.052612 
	C411.179138,141.790482 411.527100,142.601913 411.814575,143.756195 
	C411.118896,143.400940 410.483704,142.702820 409.783142,141.713562 
z"/>
<path fill="#9A3A38" opacity="1.000000" stroke="none" 
	d="
M528.923828,196.819946 
	C528.311707,195.994186 527.714600,194.811584 527.125488,193.263824 
	C527.735168,194.086792 528.337036,195.274933 528.923828,196.819946 
z"/>
<path fill="#FACDCC" opacity="1.000000" stroke="none" 
	d="
M363.910797,144.659271 
	C363.430634,143.876862 363.028046,142.714584 362.851410,141.231689 
	C363.381042,142.033844 363.684723,143.156616 363.910797,144.659271 
z"/>
<path fill="#DA7B7F" opacity="1.000000" stroke="none" 
	d="
M478.970032,201.017868 
	C478.749512,200.349854 478.559357,199.176453 478.655457,197.739700 
	C478.961273,198.488403 478.980835,199.500427 478.970032,201.017868 
z"/>
<path fill="#CF4747" opacity="1.000000" stroke="none" 
	d="
M120.035095,141.991150 
	C119.527847,142.399231 118.623482,142.750656 117.362061,142.999512 
	C117.882660,142.576126 118.760315,142.255310 120.035095,141.991150 
z"/>
<path fill="#DA7B7F" opacity="1.000000" stroke="none" 
	d="
M478.987061,145.088379 
	C478.498627,144.647537 478.045502,143.768448 477.529816,142.503143 
	C477.985596,142.961334 478.503967,143.805740 478.987061,145.088379 
z"/>
<path fill="#DE2928" opacity="1.000000" stroke="none" 
	d="
M155.027939,170.656067 
	C155.035782,170.843185 154.591064,170.883942 154.367874,170.879639 
	C154.144684,170.875336 154.077942,170.436676 154.126038,170.219971 
	C154.174149,170.003265 154.594467,170.035019 154.803436,170.064758 
	C155.012421,170.094482 155.020096,170.468964 155.027939,170.656067 
z"/>
<path fill="#61443F" opacity="1.000000" stroke="none" 
	d="
M522.128418,225.333420 
	C522.350952,225.248199 522.582703,225.433060 522.887085,225.848404 
	C522.621887,226.041000 522.347839,225.882538 522.128418,225.333420 
z"/>
<path fill="#DE2928" opacity="1.000000" stroke="none" 
	d="
M218.905273,206.965179 
	C219.060486,207.561569 219.546982,208.381714 219.318985,208.719284 
	C217.334763,211.657013 214.858917,213.267151 210.956039,212.577042 
	C206.844925,211.850128 203.174789,210.625122 203.149643,205.888382 
	C203.073212,191.492416 203.345490,177.094589 203.744370,162.813919 
	C204.012848,175.959473 203.952545,188.989365 204.105301,202.016769 
	C204.125412,203.731796 205.234482,205.434036 205.922058,207.496307 
	C210.097382,212.451904 214.228638,212.152908 218.107422,206.989685 
	C218.550735,206.978806 218.727997,206.972000 218.905273,206.965179 
z"/>
<path fill="#DE2928" opacity="1.000000" stroke="none" 
	d="
M218.165237,158.035538 
	C219.081482,160.343842 220.765442,162.648346 220.776855,164.961105 
	C220.819153,173.535751 220.309128,182.113052 220.008835,190.689453 
	C219.849060,195.252548 219.693954,199.815826 219.275360,204.225983 
	C219.008087,191.514694 219.072876,178.955612 218.922516,166.399078 
	C218.899063,164.440628 217.894882,162.493912 217.339767,160.346161 
	C217.428192,159.428268 217.521042,158.705978 217.748993,158.025803 
	C217.884079,158.067917 218.165237,158.035538 218.165237,158.035538 
z"/>
<path fill="#DA7B7F" opacity="1.000000" stroke="none" 
	d="
M205.839188,207.142197 
	C205.234482,205.434036 204.125412,203.731796 204.105301,202.016769 
	C203.952545,188.989365 204.012848,175.959473 203.961838,162.462952 
	C204.282837,160.949585 204.648773,159.903610 205.237839,158.512451 
	C205.460968,158.167282 205.761719,158.069977 205.921936,158.402344 
	C206.053207,160.140274 206.055725,161.547348 205.989975,162.951202 
	C205.668076,169.823593 205.071243,176.694778 205.061996,183.567062 
	C205.051437,191.425079 205.557571,199.283783 205.839188,207.142197 
z"/>
<path fill="#471F1D" opacity="1.000000" stroke="none" 
	d="
M205.761719,158.069977 
	C205.761719,158.069977 205.460968,158.167282 205.304657,158.185867 
	C204.402557,154.230698 207.399933,153.573914 210.066437,152.981766 
	C213.832077,152.145554 216.859772,153.133408 218.086273,157.677765 
	C218.165237,158.035538 217.884079,158.067917 217.438400,157.956848 
	C213.249054,157.920502 209.505386,157.995239 205.761719,158.069977 
z"/>
<path fill="#E99D9F" opacity="1.000000" stroke="none" 
	d="
M217.344193,160.541779 
	C217.894882,162.493912 218.899063,164.440628 218.922516,166.399078 
	C219.072876,178.955612 219.008087,191.514694 219.072006,204.539093 
	C219.056366,205.438477 218.982712,205.871689 218.907166,206.635040 
	C218.727997,206.972000 218.550735,206.978806 218.189011,206.527466 
	C218.002594,194.314285 218.048706,182.558929 217.968811,170.804398 
	C217.945557,167.382263 217.562378,163.962585 217.344193,160.541779 
z"/>
<path fill="#DA7B7F" opacity="1.000000" stroke="none" 
	d="
M189.406540,202.837799 
	C189.169312,190.054504 189.116928,176.886337 189.196121,163.247879 
	C189.415604,176.002686 189.503494,189.227814 189.406540,202.837799 
z"/>
<path fill="#471F1D" opacity="1.000000" stroke="none" 
	d="
M338.519257,154.831497 
	C337.717834,154.496567 337.384888,154.148499 336.933899,153.586487 
	C337.124084,153.022537 337.432312,152.672562 337.979309,152.064575 
	C345.954773,151.979050 353.691467,152.151550 361.782623,152.549042 
	C360.708466,153.511688 359.297089,154.842117 357.848175,154.884384 
	C351.567352,155.067520 345.275543,154.874573 338.519257,154.831497 
z"/>
<path fill="#61443F" opacity="1.000000" stroke="none" 
	d="
M385.805542,220.826691 
	C386.122864,221.427017 386.161774,222.307983 385.754974,222.635742 
	C383.400391,224.532913 374.759491,223.730942 372.318237,221.035065 
	C376.696289,220.673477 381.008728,220.762634 385.805542,220.826691 
z"/>
<path fill="#DA7B7F" opacity="1.000000" stroke="none" 
	d="
M386.615143,217.953491 
	C386.808929,218.026016 386.874847,218.260635 386.883423,218.857529 
	C386.713135,218.851730 386.600189,218.483673 386.615143,217.953491 
z"/>
<path fill="#DA7B7F" opacity="1.000000" stroke="none" 
	d="
M432.585083,200.111450 
	C432.832733,201.305099 432.911621,202.807281 432.877441,204.750702 
	C432.648376,203.601288 432.532379,202.010635 432.585083,200.111450 
z"/>
<path fill="#DA7B7F" opacity="1.000000" stroke="none" 
	d="
M432.613647,207.067566 
	C432.855957,207.638840 432.940735,208.463745 432.942047,209.698029 
	C432.724426,209.178680 432.590240,208.249924 432.613647,207.067566 
z"/>
<path fill="#DA7B7F" opacity="1.000000" stroke="none" 
	d="
M417.580444,147.082870 
	C417.389252,146.991501 417.344269,146.742783 417.384338,146.123886 
	C417.585846,146.004456 417.727692,146.247482 417.807373,146.509415 
	C417.843750,146.628860 417.757385,146.785660 417.580444,147.082870 
z"/>
<path fill="#CF4747" opacity="1.000000" stroke="none" 
	d="
M118.994705,227.754135 
	C118.472618,227.513855 117.942848,226.990128 117.505829,226.159149 
	C118.061401,226.391495 118.524208,226.931091 118.994705,227.754135 
z"/>
<path fill="#E22826" opacity="1.000000" stroke="none" 
	d="
M310.124664,144.997925 
	C310.168854,151.204483 310.040985,156.987198 310.125732,162.766800 
	C310.347504,177.888901 310.664825,193.009583 310.935364,208.130981 
	C310.959167,209.461441 311.115479,210.831177 310.866089,212.115845 
	C310.410614,214.461929 311.393005,217.747559 306.973755,217.606628 
	C302.827362,217.474411 297.946930,219.235825 297.962708,212.225235 
	C297.991516,199.413208 297.932190,186.601013 297.918701,173.788879 
	C297.909576,165.136353 297.741180,156.477524 298.051880,147.836182 
	C298.120300,145.933380 299.837769,142.568848 300.927032,142.514679 
	C303.955170,142.364059 307.997681,139.924316 310.124664,144.997925 
z"/>
<path fill="#000000" opacity="1.000000" stroke="none" 
	d="
M217.339767,160.346161 
	C217.562378,163.962585 217.945557,167.382263 217.968811,170.804398 
	C218.048706,182.558929 218.002594,194.314285 217.922943,206.531555 
	C214.228638,212.152908 210.097382,212.451904 205.922058,207.496307 
	C205.557571,199.283783 205.051437,191.425079 205.061996,183.567062 
	C205.071243,176.694778 205.668076,169.823593 205.989975,162.951202 
	C206.055725,161.547348 206.053207,160.140274 205.921936,158.402344 
	C209.505386,157.995239 213.249054,157.920502 217.303314,157.914734 
	C217.521042,158.705978 217.428192,159.428268 217.339767,160.346161 
z"/>
</svg>